# xmcd
#
# Track frame offsets: 
#        150
#        12072
#        28755
#        40287
#        57632
#        68630
#        80417
#        96515
#        108775
#        118167
#        130712
#        146785
#        161102
#        176802
#        190010
#        203397
#        217015
#        228385
#        243625
#
# Disc length: 3535 seconds
#
# Revision: 4
# Processed by: cddbd v1.5.2PL0 Copyright (c) Steve Scherf et al.
# Submitted via: ExactAudioCopy v0.99pb5
#
DISCID=110dcd13
DTITLE=Byrds - Sweetheart of the Rodeo
DYEAR=1968
DGENRE=Folk-Rock
TTITLE0=You Ain't Going Nowhere
TTITLE1=I Am a Pilgrim
TTITLE2=The Christian Life
TTITLE3=You Don't Miss Your Water
TTITLE4=You're Still on My Mind
TTITLE5=Pretty Boy Floyd
TTITLE6=Hickory Wind
TTITLE7=One Hundred Years from Now
TTITLE8=Blue Canadian Rockies
TTITLE9=Life in Prison
TTITLE10=Nothing Was Delivered
TTITLE11=You Got a Reputation
TTITLE12=Lazy Days
TTITLE13=Pretty Polly
TTITLE14=The Christian Life [Rehearsal-Take #11]
TTITLE15=Life in Prison [Rehearsal-Take #11]
TTITLE16=You're Still on My Mind [Rehearsal-Take #43]
TTITLE17=One Hundred Years from Now [Rehearsal-Take #2]
TTITLE18=All I Have Are Memories [Instrumental]
EXTD=
EXTT0=
EXTT1=
EXTT2=
EXTT3=
EXTT4=
EXTT5=
EXTT6=
EXTT7=
EXTT8=
EXTT9=
EXTT10=
EXTT11=
EXTT12=
EXTT13=
EXTT14=(rehearsal-take #11)
EXTT15=(rehearsal-take #11)
EXTT16=(rehearsal-take #43)
EXTT17=(rehearsal-take #2)
EXTT18=instrumental
PLAYORDER=
